# xmcd
#
# Track frame offsets:
#	150
#	21542
#	37195
#
# Disc length: 770 seconds
#
# Revision: 0
# Processed by: cddbd v1.5.1PL0 Copyright (c) Steve Scherf et al.
# Submitted via: EasyCDDAExtractor 4.5.0.2
#
DISCID=25030003
DTITLE=MICHALIS NICHOLOUDIS - Terra Musica
DYEAR=1998
DGENRE=Dream
TTITLE0=The song of the Blue Whale  -  MICHALIS NICHOLOUDIS
TTITLE1=Swordes  -  MICHALIS NICHOLOUDIS
TTITLE2=Mescalito  -  MICHALIS NICHOLOUDIS
EXTD=
EXTT0=
EXTT1=
EXTT2=
PLAYORDER=
